<svg width="220" height="40" xmlns="http://www.w3.org/2000/svg">

 <g>
  <title>background</title>
  <rect fill="none" id="canvas_background" height="42" width="222" y="-1" x="-1"/>
 </g>
 <g>
  <title>Layer 1</title>
  <g id="logobody">
   <g transform="matrix(1.2,0,0,1.2,360.22999615669255,329) " fill="#7DC55F" id="text_1">
    <path id="svg_1" d="m-281.019995,-265.119996q-0.06,1.02 -0.48,1.905t-1.095,1.53t-1.575,1.035t-1.92,0.39l-3.84,-0.03q-1.71,0 -3.075,0.93t-1.995,2.4l0,-3.09q0,-1.05 0.405,-1.965t1.095,-1.605t1.605,-1.095t1.965,-0.405l8.91,0zm-5.07,10.62q1.71,0 3.06,-0.93t2.01,-2.4l0,3.09q0,1.05 -0.405,1.965t-1.095,1.605t-1.605,1.08t-1.965,0.39l-8.91,0q0.03,-0.99 0.45,-1.875t1.11,-1.545t1.59,-1.035t1.92,-0.375l3.84,0.03zm5.07,-5.31q-0.06,0.99 -0.45,1.86t-1.065,1.53t-1.545,1.035t-1.86,0.405l-9.06,0q0.03,-0.99 0.435,-1.86t1.08,-1.515t1.545,-1.035t1.86,-0.42l9.06,0zm6,0.36l0,-0.24q0,-1.05 0.405,-1.965t1.095,-1.605t1.605,-1.08t1.965,-0.39l3.09,0q-1.47,0.63 -2.4,1.98t-0.93,3.06l0,9.99q-1.02,-0.03 -1.905,-0.45t-1.53,-1.11t-1.02,-1.59t-0.375,-1.92l0,-4.68zm0,-12.15q1.02,0.06 1.89,0.465t1.53,1.08t1.035,1.575t0.375,1.92l0,1.38q-1.62,0.06 -2.925,0.96t-1.905,2.34l0,-9.72zm10.35,6.87q1.05,0 1.98,0.39t1.62,1.08t1.08,1.62t0.39,1.98l0,9.96q-1.02,-0.03 -1.905,-0.45t-1.53,-1.11t-1.02,-1.59t-0.375,-1.92l0,-4.68l0,-0.21q0,-1.44 -0.66,-2.625t-1.77,-1.965q0.51,-0.24 1.05,-0.36t1.14,-0.12zm16.14,15.03q-1.05,0 -1.95,-0.39t-1.59,-1.065t-1.095,-1.575t-0.435,-1.95l0,-3.15q0.66,1.47 2.01,2.385t3.06,0.915l0.21,0l4.86,0q0.06,1.62 0.975,2.925t2.325,1.905l-8.37,0zm-5.04,-10.17q0.03,-0.99 0.435,-1.875t1.095,-1.545t1.59,-1.05t1.92,-0.39l3.09,0q-1.47,0.66 -2.4,2.01t-0.93,3.06l0,0.21l0,4.47q-0.99,-0.03 -1.845,-0.435t-1.5,-1.065t-1.035,-1.53t-0.42,-1.86zm10.56,0.42l0,-0.21q0,-1.71 -0.915,-3.06t-2.385,-2.01l3.09,0q1.05,0 1.965,0.405t1.605,1.095t1.08,1.605t0.39,1.965l0,9.96q-0.99,-0.03 -1.875,-0.45t-1.545,-1.095t-1.035,-1.575t-0.375,-1.92l0,-4.71zm20.58,-0.84l-4.68,0q-1.02,0 -1.92,-0.375t-1.59,-1.02t-1.11,-1.53t-0.45,-1.905l9.99,0q1.05,0 1.965,0.405t1.605,1.095t1.08,1.605t0.39,1.965l0,3.09q-0.63,-1.47 -1.98,-2.4t-3.06,-0.93l-0.24,0zm-9.75,-2.85q0.63,1.44 1.92,2.355t2.91,0.975l0,4.86l0,0.21q0,1.71 0.93,3.06t2.4,1.98l-3.09,0q-1.05,0 -1.965,-0.39t-1.605,-1.08t-1.095,-1.605t-0.405,-1.965l0,-8.4zm0,-8.73q1.02,0.06 1.89,0.465t1.53,1.095t1.035,1.59t0.375,1.92l0,1.23l-4.83,0l0,-6.3zm10.17,22.17q-1.2,-0.03 -2.22,-0.6q1.05,-0.78 1.65,-1.935t0.6,-2.505l0,-0.21l0,-4.86q1.02,0.06 1.89,0.465t1.53,1.095t1.035,1.59t0.375,1.92q0,1.02 -0.375,1.92t-1.035,1.59t-1.545,1.095t-1.905,0.435zm20.58,-10.59l-4.68,0q-1.02,0 -1.92,-0.375t-1.59,-1.02t-1.11,-1.53t-0.45,-1.905l9.99,0q1.05,0 1.965,0.405t1.605,1.095t1.08,1.605t0.39,1.965l0,3.09q-0.63,-1.47 -1.98,-2.4t-3.06,-0.93l-0.24,0zm-9.75,-2.85q0.63,1.44 1.92,2.355t2.91,0.975l0,4.86l0,0.21q0,1.71 0.93,3.06t2.4,1.98l-3.09,0q-1.05,0 -1.965,-0.39t-1.605,-1.08t-1.095,-1.605t-0.405,-1.965l0,-8.4zm0,-8.73q1.02,0.06 1.89,0.465t1.53,1.095t1.035,1.59t0.375,1.92l0,1.23l-4.83,0l0,-6.3zm10.17,22.17q-1.2,-0.03 -2.22,-0.6q1.05,-0.78 1.65,-1.935t0.6,-2.505l0,-0.21l0,-4.86q1.02,0.06 1.89,0.465t1.53,1.095t1.035,1.59t0.375,1.92q0,1.02 -0.375,1.92t-1.035,1.59t-1.545,1.095t-1.905,0.435zm16.35,7.2q0.03,-0.99 0.45,-1.875t1.11,-1.545t1.59,-1.035t1.92,-0.375q1.71,0 3.06,-0.915t2.01,-2.415l0,3.09q0,1.05 -0.405,1.98t-1.095,1.62t-1.605,1.08t-1.965,0.39l-5.07,0zm-5.55,-22.62q1.02,0.06 1.89,0.465t1.53,1.08t1.035,1.575t0.375,1.92l0,5.07l0,0.24q0,1.71 0.915,3.06t2.415,2.01l-3.09,0q-1.05,0 -1.965,-0.405t-1.605,-1.095t-1.095,-1.605t-0.405,-1.965l0,-10.35zm10.35,15.42q-1.11,0 -2.04,-0.45q1.14,-0.72 1.845,-1.935t0.705,-2.685l0,-0.24l-0.03,0l0,-5.07q0,-1.02 0.39,-1.92t1.035,-1.575t1.53,-1.08t1.905,-0.465l0,10.35q0,1.05 -0.405,1.965t-1.095,1.605t-1.605,1.095t-1.965,0.405l-0.27,0zm0.48,0.45q1.62,-0.06 2.925,-0.96t1.905,-2.34q-0.06,0.96 -0.45,1.815t-1.035,1.5t-1.5,1.035t-1.845,0.42l0,-1.47zm32.04,-10.8q0,-1.02 0.375,-1.92t1.02,-1.59t1.53,-1.095t1.905,-0.465l0,10.35q0,1.05 -0.405,1.98t-1.095,1.62t-1.605,1.08t-1.965,0.39q-1.14,0 -2.19,-0.48q1.11,-0.78 1.77,-1.965t0.66,-2.625l0,-5.28zm-16.35,5.28q0,1.71 0.93,3.075t2.4,1.995l-3.09,0q-1.05,0 -1.965,-0.39t-1.605,-1.08t-1.095,-1.62t-0.405,-1.98l0,-5.28q0,-1.02 0.375,-1.92t1.02,-1.59t1.53,-1.095t1.905,-0.465l0,10.35zm5.76,-5.28q0,-1.02 0.375,-1.92t1.02,-1.59t1.53,-1.095t1.905,-0.465l0,10.35q0,1.05 -0.405,1.98t-1.095,1.62t-1.605,1.08t-1.965,0.39q-1.14,0 -2.19,-0.48q1.11,-0.78 1.77,-1.965t0.66,-2.625l0,-5.28zm5.07,10.35q-1.17,0 -2.19,-0.51q1.59,-1.08 2.19,-2.97q0.33,1.17 1.14,2.085t1.95,1.395l-3.09,0zm16.35,-15.42q1.02,0.06 1.905,0.465t1.53,1.095t1.035,1.59t0.39,1.92l0,5.07l-0.03,0l0,0.21q0,1.71 0.93,3.075t2.4,1.995l-3.09,0q-1.05,0 -1.965,-0.39t-1.605,-1.08t-1.095,-1.62t-0.405,-1.98l0,-10.35zm9.87,15.39q-0.6,-0.06 -1.17,-0.255t-1.08,-0.525q0.93,-0.78 1.47,-1.875t0.54,-2.385l0,-0.21l0,-5.07q0,-1.02 0.375,-1.92t1.02,-1.59t1.53,-1.095t1.905,-0.465l0,10.35q0,0.99 -0.36,1.875t-0.975,1.56t-1.455,1.095t-1.8,0.51z"/>
    <rect fill-opacity="0" id="bg_text_1" stroke="#cccccc" fill="#000" height="30" width="172.95" y="-272.499996" x="-294.999995"/>
   </g>
  </g>
 </g>
</svg>